<svg width="366" height="71" viewBox="0 0 366 71" fill="none" xmlns="http://www.w3.org/2000/svg">
<g clip-path="url(#clip0_4_938)">
<path fill-rule="evenodd" clip-rule="evenodd" d="M2.85265 30.3954L31.0515 2.6721C34.0155 -0.239985 38.8637 -0.239985 41.8265 2.6721L70.0255 30.3954C72.9883 33.3086 72.9883 38.0749 70.0243 40.9881L41.8254 68.7114C38.8626 71.6257 34.0132 71.6257 31.0492 68.7114L2.85036 40.9892C-0.112456 38.076 -0.110163 33.3086 2.85265 30.3954ZM5.66188 33.1293L33.8344 5.43274C35.2671 4.02403 37.6144 4.02403 39.0471 5.43274L67.2197 33.1293C68.6524 34.5381 68.6524 36.8455 67.2185 38.2553L39.046 65.9497C37.6133 67.3584 35.2671 67.3584 33.8332 65.9497L5.66188 38.2553C4.22804 36.8455 4.22804 34.5381 5.66188 33.1293Z" fill="#003B4C"/>
<path d="M107.57 22.0389C107.57 21.726 107.622 21.4431 107.721 21.197C107.824 20.942 107.981 20.7259 108.19 20.55C108.391 20.3785 108.614 20.2504 108.86 20.1658C109.106 20.0812 109.369 20.0388 109.652 20.0388C109.92 20.0388 110.174 20.0823 110.412 20.1669C110.651 20.2527 110.869 20.3818 111.068 20.55C111.481 20.8997 111.688 21.3819 111.688 21.9932V37.3455C111.688 38.7909 111.518 40.1351 111.181 41.3778C110.844 42.6229 110.336 43.7665 109.659 44.8055C108.985 45.839 108.207 46.7454 107.328 47.525C106.448 48.3034 105.463 48.9537 104.378 49.476C103.295 49.9961 102.18 50.387 101.031 50.6464C99.8803 50.9059 98.6963 51.0373 97.4813 51.0373C96.2653 51.0373 95.0813 50.907 93.9305 50.6464C92.7844 50.3881 91.6669 49.9972 90.5849 49.476C89.4972 48.9526 88.5138 48.3034 87.6347 47.5261C86.7545 46.7477 85.9774 45.8412 85.3034 44.8066C84.6272 43.7688 84.1183 42.6273 83.7813 41.3801C83.4443 40.1373 83.2759 38.7932 83.2759 37.3477V21.8563C83.2759 21.5701 83.3274 21.3128 83.4306 21.0856C83.536 20.8529 83.6965 20.6558 83.9074 20.4943C84.1068 20.3429 84.3246 20.227 84.5607 20.1536C84.7945 20.0778 85.0444 20.0388 85.3103 20.0388C85.5911 20.0388 85.8536 20.0789 86.0977 20.1591C86.3464 20.2393 86.5699 20.3618 86.7671 20.521C86.9768 20.6903 87.135 20.8919 87.2381 21.1246C87.3413 21.354 87.3929 21.6146 87.3929 21.9008V37.3466C87.3929 38.39 87.5109 39.3555 87.7493 40.2431C87.9854 41.1262 88.3396 41.9358 88.8106 42.6685C89.284 43.4024 89.8307 44.0483 90.4531 44.6029C91.0743 45.1574 91.77 45.6218 92.5391 45.996C93.3128 46.3713 94.1116 46.6552 94.9346 46.8434C95.7564 47.0316 96.6057 47.1252 97.4813 47.1252C99.2292 47.1252 100.878 46.7488 102.425 45.9949C103.194 45.6207 103.891 45.1563 104.511 44.6017C105.133 44.0472 105.681 43.4002 106.152 42.6674C106.624 41.9335 106.978 41.1262 107.215 40.242C107.451 39.3544 107.57 38.39 107.57 37.3455V22.0389Z" fill="#003B4C"/>
<path d="M131.583 20.4108C133.638 20.4108 135.534 20.8173 137.271 21.6335C139.009 22.4487 140.313 23.6147 141.182 25.1281V13.5354C141.182 12.914 141.4 12.4195 141.834 12.0498C142.269 11.6801 142.782 11.4964 143.375 11.4964C143.967 11.4964 144.472 11.6812 144.885 12.0498C145.3 12.4195 145.508 12.9129 145.508 13.5354V48.3713C145.508 48.9938 145.311 49.4883 144.916 49.8569C144.521 50.2255 143.988 50.4103 143.316 50.4103C141.973 50.4103 141.301 49.7299 141.301 48.3713V45.9826C140.353 47.692 138.991 48.9537 137.214 49.7689C135.436 50.5852 133.56 50.9927 131.583 50.9927C128.78 50.9927 126.231 50.3814 123.938 49.1586C121.648 47.9348 119.82 46.1575 118.458 43.8278C117.096 41.497 116.413 38.7007 116.413 35.439C116.413 33.2251 116.917 30.9623 117.924 28.6515C118.932 26.3408 120.571 24.3886 122.842 22.7973C125.114 21.2048 128.028 20.4108 131.583 20.4108ZM131.937 46.9749C134.585 46.819 136.788 45.9459 138.544 44.3534C140.302 42.7598 141.181 40.6451 141.181 38.0025V33.4011C141.181 30.8765 140.293 28.7796 138.514 27.1092C136.737 25.4388 134.485 24.5467 131.76 24.4287C129.033 24.4287 126.852 25.0211 125.212 26.206C123.571 27.3909 122.417 28.8174 121.746 30.4879C121.073 32.1572 120.737 33.7496 120.737 35.2641C120.737 38.0593 121.33 40.3322 122.514 42.0794C123.7 43.8267 125.151 45.0795 126.87 45.8367C128.588 46.594 130.278 46.9749 131.937 46.9749Z" fill="#003B4C"/>
<path d="M149.685 23.0389C149.603 22.8786 149.563 22.6392 149.563 22.3229C149.563 21.726 149.807 21.2293 150.292 20.8307C150.777 20.4331 151.343 20.2338 151.992 20.2338C152.396 20.2338 152.77 20.3329 153.115 20.5322C153.459 20.7315 153.712 21.03 153.874 21.4287L165.472 44.1742L177.19 21.3697C177.353 21.0111 177.605 20.7327 177.95 20.5333C178.294 20.334 178.67 20.2349 179.074 20.2349C179.641 20.2349 180.157 20.4041 180.623 20.7416C181.089 21.0801 181.322 21.5289 181.322 22.0857C181.322 22.2839 181.261 22.5423 181.138 22.8608L167.415 49.6654C167.214 50.103 166.918 50.4404 166.535 50.6799C166.15 50.9193 165.755 51.0384 165.351 51.0384C164.582 51.0384 163.933 50.6019 163.408 49.7255L149.685 23.0389Z" fill="#003B4C"/>
<path d="M36.2525 42.2487C36.751 42.7387 36.9998 43.2487 36.9998 43.781C36.9998 44.3534 36.7717 44.8534 36.3144 45.2822C35.857 45.712 35.3367 45.927 34.7544 45.927C34.2146 45.927 33.6736 45.702 33.1338 45.2521L22.4069 35.0136C21.7421 34.4824 21.4097 33.91 21.4097 33.2975C21.4097 32.6015 21.7628 31.9489 22.4688 31.3353L33.2564 21.1592C33.755 20.628 34.3372 20.3618 35.002 20.3618C35.5419 20.3618 36.021 20.5567 36.4359 20.9442C36.8519 21.334 37.0605 21.7928 37.0605 22.3229C37.0605 22.8129 36.8107 23.3441 36.3121 23.9165L26.2717 33.2351L36.249 42.2476L36.2525 42.2487Z" fill="#003B4C"/>
<path d="M36.6273 47.3423C36.1287 47.8334 35.8788 48.3434 35.8788 48.8735C35.8788 49.447 36.1069 49.947 36.5642 50.3747C37.0216 50.8045 37.5408 51.0194 38.123 51.0194C38.6629 51.0194 39.2038 50.7945 39.7448 50.3435L50.4706 40.1072C51.1353 39.5749 51.4689 39.0036 51.4689 38.3911C51.4689 37.6962 51.1159 37.0425 50.4075 36.4289L39.6199 26.2516C39.1213 25.7205 38.5391 25.4543 37.8743 25.4543C37.3345 25.4543 36.8554 25.6492 36.4416 26.0367C36.0244 26.4243 35.8169 26.8842 35.8169 27.4154C35.8169 27.9054 36.0668 28.4377 36.5654 29.0089L46.6057 38.3276L36.6273 47.3423Z" fill="#003B4C"/>
<path d="M232.695 47.9734C232.695 50.6728 232.06 52.9758 230.791 54.8845C229.521 56.7932 227.785 58.2287 225.583 59.193C223.381 60.1563 220.911 60.6385 218.173 60.6385C215.792 60.6385 213.699 60.349 211.893 59.771C210.088 59.193 208.411 58.2097 206.864 56.8211C206.586 56.5516 206.448 56.281 206.448 56.0115C206.448 55.742 206.546 55.5293 206.746 55.3756C206.944 55.2219 207.182 55.1451 207.46 55.1451C207.777 55.1451 208.035 55.2219 208.233 55.3756C209.94 56.6484 211.517 57.5159 212.966 57.9781C214.415 58.4414 216.15 58.6719 218.174 58.6719C220.435 58.6719 222.509 58.2765 224.394 57.487C226.28 56.6963 227.787 55.4914 228.918 53.8722C230.049 52.253 230.614 50.2864 230.614 47.9734V42.5958C229.662 44.7941 228.144 46.489 226.061 47.685C223.977 48.8799 221.666 49.4779 219.126 49.4779C216.428 49.4779 213.908 48.8999 211.568 47.7429C209.226 46.5859 207.342 44.8798 205.912 42.6248C204.484 40.3697 203.77 37.6803 203.77 34.5578C203.77 31.2036 204.584 28.2447 206.21 25.6812C207.837 23.1165 210.178 21.2189 213.234 19.9839C215.02 19.2512 216.904 18.8848 218.888 18.8848C221.467 18.8848 223.928 19.5597 226.268 20.9094C228.371 22.2591 229.82 23.974 230.613 26.0565V20.3314C230.613 19.6365 230.95 19.2902 231.625 19.2902C231.943 19.2902 232.201 19.387 232.399 19.5797C232.597 19.7735 232.697 20.0229 232.697 20.3314L232.695 47.9734ZM224.422 22.239C222.438 21.3136 220.433 20.8704 218.41 20.9094C215.593 21.1031 213.153 21.9695 211.088 23.5119C209.303 24.8616 207.983 26.4807 207.131 28.3694C206.278 30.2581 205.851 32.2827 205.851 34.4419C205.851 36.8707 206.366 39.069 207.398 41.0345C208.429 43.0012 209.947 44.5624 211.951 45.7184C213.955 46.8754 216.346 47.4534 219.124 47.4534C221.306 47.4534 223.271 46.9712 225.017 46.0068C226.762 45.0435 228.131 43.7517 229.123 42.1325C230.115 40.5133 230.611 38.7394 230.611 36.8117V31.7804C230.611 29.6601 230.074 27.7703 229.004 26.1133C227.932 24.4551 226.405 23.1644 224.422 22.239Z" fill="#003B4C"/>
<path d="M244.479 26.865C245.114 24.6678 246.444 22.8849 248.468 21.5152C250.492 20.1466 252.754 19.4628 255.253 19.4628C255.967 19.4628 256.325 19.7902 256.325 20.4461C256.325 21.102 255.967 21.4294 255.253 21.4294C251.682 21.4294 248.993 22.6923 247.188 25.2168C245.383 27.7425 244.479 30.9129 244.479 34.7304V47.7997C244.479 48.1082 244.381 48.3588 244.183 48.5514C243.983 48.7441 243.746 48.841 243.467 48.841C243.15 48.841 242.892 48.7441 242.694 48.5514C242.495 48.3588 242.396 48.1082 242.396 47.7997V20.4461C242.396 20.1766 242.495 19.945 242.694 19.7523C242.892 19.5597 243.15 19.4628 243.467 19.4628C243.746 19.4628 243.983 19.5597 244.183 19.7523C244.381 19.945 244.479 20.1766 244.479 20.4461V26.865Z" fill="#003B4C"/>
<path d="M274.657 49.4768C272.276 49.4768 270.074 49.0335 268.05 48.1471C266.026 47.2596 264.28 45.9878 262.812 44.3297C260.432 41.4766 259.241 38.1035 259.241 34.2092C259.241 32.0109 259.678 29.8917 260.551 27.8482C261.424 25.8048 262.684 24.0408 264.331 22.5564C265.978 21.0719 267.913 20.0218 270.134 19.4048C271.483 19.0574 272.991 18.8837 274.658 18.8837C276.126 18.8837 277.614 19.0574 279.122 19.4048C282.257 20.2534 284.797 21.9494 286.741 24.494C288.684 27.0386 289.796 29.9106 290.074 33.1112C290.312 37.5066 289.121 41.2461 286.502 44.3297C285.034 45.9878 283.287 47.2596 281.264 48.1471C279.241 49.0335 277.037 49.4768 274.657 49.4768ZM278.466 21.3715C277.196 21.063 275.907 20.9082 274.598 20.9082C273.368 20.9082 272.119 21.063 270.848 21.3715C267.952 22.1421 265.65 23.7613 263.943 26.229C262.237 28.6968 261.384 31.4341 261.384 34.4408C261.384 36.021 261.642 37.5545 262.158 39.0389C262.674 40.5222 263.447 41.863 264.479 43.0579C265.708 44.4845 267.217 45.5825 269.003 46.3542C270.788 47.1248 272.673 47.5112 274.657 47.5112C276.681 47.5112 278.595 47.1259 280.4 46.3542C282.205 45.5836 283.723 44.4845 284.954 43.0579C285.985 41.863 286.759 40.5323 287.275 39.0679C287.79 37.6023 288.048 36.08 288.048 34.4987C288.048 31.492 287.185 28.7447 285.459 26.258C283.733 23.7713 281.403 22.1432 278.466 21.3715Z" fill="#003B4C"/>
<path d="M299.834 36.8117C299.834 38.8162 300.36 40.638 301.411 42.2762C302.464 43.9154 303.853 45.1972 305.579 46.1226C307.305 47.0469 309.159 47.5101 311.143 47.5101C313.206 47.5101 315.27 46.96 317.334 45.862C319.397 44.7629 321.103 43.1927 322.452 41.1492C323.802 39.1057 324.477 36.7348 324.477 34.0366V20.504C324.477 19.8102 324.814 19.4628 325.488 19.4628C325.805 19.4628 326.063 19.5596 326.261 19.7523C326.46 19.945 326.559 20.1955 326.559 20.504V47.9155C326.559 48.185 326.46 48.4166 326.261 48.6093C326.062 48.8019 325.805 48.8988 325.488 48.8988C324.814 48.8988 324.477 48.5514 324.477 47.8576V39.7616C323.882 41.882 322.87 43.6749 321.44 45.1393C320.012 46.6048 318.404 47.6939 316.62 48.4066C314.834 49.1193 313.088 49.4768 311.382 49.4768C309.041 49.4768 306.828 48.9846 304.746 48.0012C302.662 47.0179 300.976 45.5635 299.686 43.6348C298.397 41.7071 297.753 39.432 297.753 36.8106V20.5018C297.753 19.808 298.09 19.4605 298.765 19.4605C299.082 19.4605 299.34 19.5574 299.539 19.7501C299.737 19.9427 299.837 20.1933 299.837 20.5018V36.8106L299.834 36.8117Z" fill="#003B4C"/>
<path d="M356.201 48.4356C354.535 49.1293 352.431 49.4768 349.893 49.4768C347.353 49.4768 345.042 48.8788 342.958 47.6839C340.875 46.489 339.357 44.7929 338.405 42.5947V59.3077C338.405 60.0015 338.068 60.349 337.393 60.349C337.075 60.349 336.817 60.2532 336.619 60.0594C336.421 59.8668 336.321 59.6162 336.321 59.3077V20.504C336.321 20.1955 336.421 19.945 336.619 19.7523C336.817 19.5597 337.075 19.4628 337.393 19.4628C338.068 19.4628 338.405 19.8102 338.405 20.504V26.0565C339.198 23.974 340.647 22.2591 342.75 20.9094C345.09 19.5608 347.551 18.8848 350.13 18.8848C352.789 18.8848 355.278 19.5307 357.599 20.8225C359.92 22.1143 361.776 23.9551 363.164 26.346C364.553 28.7358 365.248 31.4931 365.248 34.6157C365.248 37.7004 364.455 40.5056 362.867 43.0301C361.28 45.5558 359.057 47.3554 356.201 48.4356ZM338.405 36.8117C338.405 38.7783 338.901 40.5512 339.894 42.1325C340.885 43.7127 342.255 44.9756 344 45.9199C345.746 46.8643 347.71 47.3754 349.893 47.4523C352.67 47.4901 355.061 46.9311 357.064 45.7752C359.069 44.6181 360.586 43.0568 361.618 41.0913C362.649 39.1247 363.165 36.9275 363.165 34.4987C363.165 31.492 362.471 28.9663 361.081 26.9228C359.692 24.8794 357.997 23.3671 355.993 22.3838C353.989 21.4005 352.074 20.9082 350.249 20.9082C348.185 20.9082 346.251 21.3325 344.446 22.1811C342.641 23.0297 341.183 24.2725 340.071 25.9106C338.961 27.5498 338.405 29.5053 338.405 31.7804V36.8117Z" fill="#003B4C"/>
<path d="M191.765 11.2187C191.77 10.7332 192.176 10.3434 192.672 10.3479C193.168 10.3523 193.567 10.7488 193.564 11.2343L191.765 11.2187ZM191.34 60.1507L191.765 11.2187L193.564 11.2343L193.138 60.1663L191.34 60.1507ZM193.138 60.1663C193.134 60.6519 192.728 61.0416 192.232 61.0372C191.736 61.0327 191.337 60.6363 191.34 60.1507L193.138 60.1663Z" fill="#003B4C"/>
</g>
<defs>
<clipPath id="clip0_4_938">
<rect width="366" height="71" fill="white"/>
</clipPath>
</defs>
</svg>
