<svg width="366" height="71" viewBox="0 0 366 71" fill="none" xmlns="http://www.w3.org/2000/svg">
<g clip-path="url(#clip0_4_951)">
<path fill-rule="evenodd" clip-rule="evenodd" d="M2.85265 30.2995L31.0515 2.57622C34.0155 -0.335873 38.8637 -0.335873 41.8265 2.57622L70.0255 30.2995C72.9883 33.2127 72.9883 37.979 70.0243 40.8922L41.8254 68.6155C38.8626 71.5298 34.0132 71.5298 31.0492 68.6155L2.85036 40.8933C-0.112456 37.9801 -0.110163 33.2127 2.85265 30.2995ZM5.66188 33.0335L33.8344 5.33686C35.2671 3.92814 37.6144 3.92814 39.0471 5.33686L67.2197 33.0335C68.6524 34.4422 68.6524 36.7496 67.2185 38.1594L39.046 65.8538C37.6133 67.2625 35.2671 67.2625 33.8332 65.8538L5.66188 38.1594C4.22804 36.7496 4.22804 34.4422 5.66188 33.0335Z" fill="#00D29D"/>
<path d="M107.57 21.943C107.57 21.6301 107.622 21.3472 107.721 21.1011C107.824 20.8461 107.981 20.6301 108.19 20.4541C108.391 20.2826 108.614 20.1546 108.86 20.0699C109.106 19.9853 109.369 19.943 109.652 19.943C109.92 19.943 110.174 19.9864 110.412 20.071C110.651 20.1568 110.869 20.286 111.068 20.4541C111.481 20.8038 111.688 21.286 111.688 21.8974V37.2496C111.688 38.6951 111.518 40.0392 111.181 41.282C110.844 42.527 110.336 43.6707 109.659 44.7097C108.985 45.7431 108.207 46.6496 107.328 47.4291C106.448 48.2075 105.463 48.8578 104.378 49.3801C103.295 49.9002 102.18 50.2911 101.031 50.5505C99.8803 50.81 98.6963 50.9414 97.4813 50.9414C96.2653 50.9414 95.0813 50.8111 93.9305 50.5505C92.7844 50.2922 91.6669 49.9013 90.5849 49.3801C89.4972 48.8567 88.5138 48.2075 87.6347 47.4302C86.7545 46.6518 85.9774 45.7453 85.3034 44.7108C84.6272 43.6729 84.1183 42.5314 83.7813 41.2842C83.4443 40.0414 83.2759 38.6973 83.2759 37.2518V21.7604C83.2759 21.4742 83.3274 21.2169 83.4306 20.9898C83.536 20.757 83.6965 20.5599 83.9074 20.3984C84.1068 20.247 84.3246 20.1312 84.5607 20.0577C84.7945 19.9819 85.0444 19.943 85.3103 19.943C85.5911 19.943 85.8536 19.9831 86.0977 20.0632C86.3464 20.1434 86.5699 20.2659 86.7671 20.4252C86.9768 20.5944 87.135 20.796 87.2381 21.0287C87.3413 21.2581 87.3929 21.5187 87.3929 21.8049V37.2507C87.3929 38.2941 87.5109 39.2596 87.7493 40.1472C87.9854 41.0303 88.3396 41.8399 88.8106 42.5726C89.284 43.3065 89.8307 43.9524 90.4531 44.507C91.0743 45.0616 91.77 45.5259 92.5391 45.9001C93.3128 46.2754 94.1116 46.5594 94.9346 46.7476C95.7564 46.9358 96.6057 47.0293 97.4813 47.0293C99.2292 47.0293 100.877 46.6529 102.425 45.899C103.194 45.5248 103.891 45.0604 104.511 44.5059C105.133 43.9513 105.681 43.3043 106.152 42.5715C106.624 41.8377 106.978 41.0303 107.215 40.1461C107.451 39.2585 107.57 38.2942 107.57 37.2496V21.943Z" fill="#00D29D"/>
<path d="M131.583 20.3149C133.638 20.3149 135.534 20.7214 137.271 21.5377C139.009 22.3528 140.313 23.5188 141.182 25.0322V13.4395C141.182 12.8181 141.4 12.3237 141.834 11.9539C142.269 11.5842 142.782 11.4005 143.375 11.4005C143.967 11.4005 144.472 11.5853 144.885 11.9539C145.3 12.3237 145.508 12.817 145.508 13.4395V48.2754C145.508 48.8979 145.311 49.3924 144.916 49.761C144.521 50.1296 143.988 50.3145 143.316 50.3145C141.973 50.3145 141.301 49.634 141.301 48.2754V45.8867C140.353 47.5961 138.991 48.8579 137.214 49.673C135.436 50.4893 133.56 50.8969 131.583 50.8969C128.78 50.8969 126.231 50.2855 123.938 49.0628C121.648 47.8389 119.82 46.0616 118.458 43.7319C117.096 41.4011 116.413 38.6049 116.413 35.3431C116.413 33.1292 116.917 30.8664 117.924 28.5556C118.932 26.2449 120.571 24.2927 122.842 22.7014C125.114 21.1089 128.028 20.3149 131.583 20.3149ZM131.937 46.879C134.585 46.7231 136.788 45.85 138.544 44.2575C140.302 42.664 141.181 40.5492 141.181 37.9066V33.3052C141.181 30.7806 140.293 28.6837 138.514 27.0133C136.737 25.3429 134.485 24.4509 131.76 24.3328C129.033 24.3328 126.852 24.9253 125.212 26.1101C123.571 27.295 122.417 28.7216 121.746 30.392C121.073 32.0613 120.737 33.6537 120.737 35.1683C120.737 37.9634 121.33 40.2363 122.514 41.9835C123.7 43.7308 125.151 44.9836 126.87 45.7409C128.588 46.4981 130.278 46.879 131.937 46.879Z" fill="#00D29D"/>
<path d="M149.685 22.9431C149.603 22.7827 149.563 22.5433 149.563 22.227C149.563 21.6301 149.807 21.1335 150.292 20.7348C150.777 20.3372 151.343 20.1379 151.992 20.1379C152.396 20.1379 152.77 20.237 153.115 20.4363C153.459 20.6357 153.712 20.9341 153.874 21.3328L165.472 44.0783L177.19 21.2738C177.353 20.9152 177.605 20.6368 177.95 20.4374C178.294 20.2381 178.67 20.139 179.074 20.139C179.641 20.139 180.157 20.3083 180.623 20.6457C181.089 20.9842 181.322 21.433 181.322 21.9898C181.322 22.188 181.261 22.4464 181.138 22.7649L167.415 49.5695C167.214 50.0071 166.918 50.3446 166.535 50.584C166.15 50.8234 165.755 50.9426 165.351 50.9426C164.582 50.9426 163.933 50.506 163.408 49.6296L149.685 22.9431Z" fill="#00D29D"/>
<path d="M36.2525 42.1528C36.751 42.6428 36.9998 43.1528 36.9998 43.6852C36.9998 44.2575 36.7717 44.7576 36.3144 45.1863C35.857 45.6161 35.3367 45.8311 34.7544 45.8311C34.2146 45.8311 33.6736 45.6061 33.1338 45.1562L22.4069 34.9177C21.7421 34.3865 21.4097 33.8141 21.4097 33.2016C21.4097 32.5056 21.7628 31.853 22.4688 31.2394L33.2564 21.0633C33.755 20.5321 34.3372 20.2659 35.002 20.2659C35.5419 20.2659 36.0209 20.4608 36.4359 20.8483C36.8519 21.2381 37.0605 21.6969 37.0605 22.227C37.0605 22.717 36.8107 23.2482 36.3121 23.8206L26.2717 33.1393L36.249 42.1517L36.2525 42.1528Z" fill="#00D29D"/>
<path d="M36.6273 47.2464C36.1287 47.7375 35.8788 48.2476 35.8788 48.7776C35.8788 49.3511 36.1069 49.8512 36.5642 50.2788C37.0216 50.7086 37.5408 50.9236 38.123 50.9236C38.6629 50.9236 39.2038 50.6986 39.7448 50.2476L50.4706 40.0113C51.1353 39.479 51.4689 38.9077 51.4689 38.2952C51.4689 37.6003 51.1159 36.9467 50.4075 36.3331L39.6199 26.1558C39.1213 25.6246 38.5391 25.3584 37.8743 25.3584C37.3345 25.3584 36.8554 25.5533 36.4416 25.9408C36.0244 26.3284 35.8169 26.7883 35.8169 27.3195C35.8169 27.8095 36.0668 28.3418 36.5654 28.9131L46.6057 38.2318L36.6273 47.2464Z" fill="#00D29D"/>
<path d="M232.695 47.8775C232.695 50.5769 232.06 52.8799 230.791 54.7886C229.521 56.6973 227.785 58.1328 225.583 59.0972C223.381 60.0604 220.911 60.5426 218.173 60.5426C215.792 60.5426 213.699 60.2531 211.893 59.6751C210.088 59.0972 208.411 58.1138 206.864 56.7252C206.586 56.4557 206.448 56.1851 206.448 55.9156C206.448 55.6461 206.546 55.4334 206.746 55.2797C206.944 55.126 207.182 55.0492 207.46 55.0492C207.777 55.0492 208.035 55.126 208.233 55.2797C209.94 56.5526 211.517 57.4201 212.966 57.8822C214.415 58.3455 216.15 58.576 218.174 58.576C220.435 58.576 222.509 58.1807 224.394 57.3911C226.28 56.6004 227.787 55.3955 228.918 53.7763C230.049 52.1571 230.614 50.1905 230.614 47.8775V42.4999C229.662 44.6982 228.144 46.3931 226.061 47.5891C223.977 48.784 221.666 49.382 219.126 49.382C216.428 49.382 213.908 48.8041 211.568 47.647C209.226 46.49 207.342 44.7839 205.912 42.5289C204.484 40.2738 203.77 37.5844 203.77 34.4619C203.77 31.1077 204.584 28.1488 206.21 25.5853C207.837 23.0207 210.178 21.1231 213.234 19.8881C215.02 19.1553 216.904 18.7889 218.888 18.7889C221.467 18.7889 223.928 19.4638 226.268 20.8135C228.371 22.1632 229.82 23.8781 230.613 25.9606V20.2355C230.613 19.5406 230.95 19.1943 231.625 19.1943C231.943 19.1943 232.201 19.2912 232.399 19.4838C232.597 19.6776 232.697 19.927 232.697 20.2355L232.695 47.8775ZM224.422 22.1431C222.438 21.2177 220.433 20.7745 218.41 20.8135C215.593 21.0072 213.153 21.8736 211.088 23.416C209.303 24.7657 207.983 26.3849 207.131 28.2736C206.278 30.1622 205.851 32.1868 205.851 34.3461C205.851 36.7748 206.366 38.9731 207.398 40.9386C208.429 42.9053 209.947 44.4666 211.951 45.6225C213.955 46.7795 216.346 47.3575 219.124 47.3575C221.306 47.3575 223.271 46.8753 225.017 45.9109C226.762 44.9476 228.131 43.6558 229.123 42.0367C230.115 40.4175 230.611 38.6435 230.611 36.7158V31.6845C230.611 29.5642 230.074 27.6744 229.004 26.0174C227.932 24.3592 226.405 23.0685 224.422 22.1431Z" fill="#F8F9FA"/>
<path d="M244.479 26.7691C245.114 24.5719 246.444 22.7891 248.468 21.4193C250.492 20.0507 252.754 19.3669 255.253 19.3669C255.967 19.3669 256.325 19.6943 256.325 20.3502C256.325 21.0062 255.967 21.3336 255.253 21.3336C251.682 21.3336 248.993 22.5964 247.188 25.121C245.383 27.6466 244.479 30.8171 244.479 34.6345V47.7038C244.479 48.0123 244.381 48.2629 244.183 48.4555C243.983 48.6482 243.746 48.7451 243.467 48.7451C243.15 48.7451 242.892 48.6482 242.694 48.4555C242.495 48.2629 242.396 48.0123 242.396 47.7038V20.3502C242.396 20.0808 242.495 19.8491 242.694 19.6565C242.892 19.4638 243.15 19.3669 243.467 19.3669C243.746 19.3669 243.983 19.4638 244.183 19.6565C244.381 19.8491 244.479 20.0808 244.479 20.3502V26.7691Z" fill="#F8F9FA"/>
<path d="M274.657 49.3809C272.276 49.3809 270.074 48.9377 268.05 48.0512C266.026 47.1637 264.28 45.8919 262.812 44.2338C260.432 41.3807 259.241 38.0076 259.241 34.1133C259.241 31.915 259.678 29.7958 260.551 27.7524C261.424 25.7089 262.684 23.9449 264.331 22.4605C265.978 20.976 267.913 19.9259 270.134 19.309C271.483 18.9615 272.991 18.7878 274.658 18.7878C276.126 18.7878 277.614 18.9615 279.122 19.309C282.257 20.1575 284.797 21.8536 286.741 24.3982C288.684 26.9428 289.796 29.8148 290.074 33.0153C290.312 37.4107 289.121 41.1502 286.502 44.2338C285.034 45.8919 283.287 47.1637 281.264 48.0512C279.241 48.9377 277.037 49.3809 274.657 49.3809ZM278.466 21.2756C277.196 20.9671 275.907 20.8123 274.598 20.8123C273.368 20.8123 272.119 20.9671 270.848 21.2756C267.952 22.0462 265.65 23.6654 263.943 26.1332C262.237 28.6009 261.384 31.3382 261.384 34.3449C261.384 35.9251 261.642 37.4586 262.158 38.943C262.674 40.4263 263.447 41.7671 264.479 42.962C265.708 44.3886 267.217 45.4866 269.003 46.2583C270.788 47.0289 272.673 47.4154 274.657 47.4154C276.681 47.4154 278.595 47.0301 280.4 46.2583C282.205 45.4877 283.723 44.3886 284.954 42.962C285.985 41.7671 286.759 40.4364 287.275 38.972C287.79 37.5065 288.048 35.9842 288.048 34.4028C288.048 31.3961 287.185 28.6488 285.459 26.1621C283.733 23.6754 281.403 22.0473 278.466 21.2756Z" fill="#F8F9FA"/>
<path d="M299.834 36.7158C299.834 38.7203 300.36 40.5422 301.411 42.1803C302.464 43.8195 303.853 45.1013 305.579 46.0267C307.305 46.951 309.159 47.4143 311.143 47.4143C313.206 47.4143 315.27 46.8641 317.334 45.7661C319.397 44.667 321.103 43.0968 322.452 41.0533C323.802 39.0098 324.477 36.639 324.477 33.9407V20.4081C324.477 19.7143 324.814 19.3669 325.488 19.3669C325.805 19.3669 326.063 19.4638 326.261 19.6564C326.46 19.8491 326.559 20.0996 326.559 20.4081V47.8196C326.559 48.0891 326.46 48.3207 326.261 48.5134C326.062 48.706 325.805 48.8029 325.488 48.8029C324.814 48.8029 324.477 48.4555 324.477 47.7617V39.6658C323.882 41.7861 322.87 43.579 321.44 45.0434C320.012 46.5089 318.404 47.598 316.62 48.3107C314.834 49.0234 313.088 49.3809 311.382 49.3809C309.041 49.3809 306.828 48.8887 304.746 47.9054C302.662 46.922 300.976 45.4677 299.686 43.5389C298.397 41.6112 297.753 39.3361 297.753 36.7147V20.4059C297.753 19.7121 298.09 19.3646 298.765 19.3646C299.082 19.3646 299.34 19.4615 299.539 19.6542C299.737 19.8468 299.837 20.0974 299.837 20.4059V36.7147L299.834 36.7158Z" fill="#F8F9FA"/>
<path d="M356.201 48.3397C354.535 49.0335 352.431 49.3809 349.893 49.3809C347.353 49.3809 345.042 48.7829 342.958 47.588C340.875 46.3931 339.357 44.6971 338.405 42.4988V59.2119C338.405 59.9056 338.068 60.2531 337.393 60.2531C337.075 60.2531 336.817 60.1573 336.619 59.9636C336.421 59.7709 336.321 59.5203 336.321 59.2119V20.4081C336.321 20.0997 336.421 19.8491 336.619 19.6564C336.817 19.4638 337.075 19.3669 337.393 19.3669C338.068 19.3669 338.405 19.7143 338.405 20.4081V25.9606C339.198 23.8781 340.647 22.1632 342.75 20.8135C345.09 19.4649 347.551 18.7889 350.13 18.7889C352.789 18.7889 355.278 19.4348 357.599 20.7266C359.92 22.0184 361.776 23.8592 363.164 26.2501C364.553 28.6399 365.248 31.3972 365.248 34.5198C365.248 37.6045 364.455 40.4097 362.867 42.9342C361.28 45.4599 359.057 47.2595 356.201 48.3397ZM338.405 36.7158C338.405 38.6825 338.901 40.4553 339.894 42.0367C340.885 43.6169 342.255 44.8797 344 45.824C345.746 46.7684 347.71 47.2795 349.893 47.3564C352.67 47.3942 355.061 46.8352 357.064 45.6793C359.069 44.5222 360.586 42.961 361.618 40.9954C362.649 39.0288 363.165 36.8316 363.165 34.4029C363.165 31.3961 362.471 28.8704 361.081 26.827C359.692 24.7835 357.997 23.2712 355.992 22.2879C353.989 21.3046 352.074 20.8124 350.249 20.8124C348.185 20.8124 346.251 21.2366 344.446 22.0852C342.641 22.9338 341.183 24.1766 340.071 25.8147C338.961 27.4539 338.405 29.4094 338.405 31.6845V36.7158Z" fill="#F8F9FA"/>
<path d="M191.765 11.1228C191.77 10.6373 192.176 10.2475 192.672 10.252C193.168 10.2564 193.567 10.6529 193.564 11.1384L191.765 11.1228ZM191.34 60.0549L191.765 11.1228L193.564 11.1384L193.139 60.0704L191.34 60.0549ZM193.139 60.0704C193.134 60.556 192.728 60.9458 192.232 60.9413C191.736 60.9368 191.337 60.5404 191.34 60.0549L193.139 60.0704Z" fill="#F8F9FA"/>
</g>
<defs>
<clipPath id="clip0_4_951">
<rect width="366" height="71" fill="white"/>
</clipPath>
</defs>
</svg>
