<svg width="4" height="4" viewBox="0 0 4 4" fill="none" xmlns="http://www.w3.org/2000/svg">
<path d="M1.99994 3.33956e-09C2.3918 -2.26374e-05 2.77503 0.115076 3.10204 0.331C3.42905 0.546924 3.68542 0.854158 3.83931 1.21454C3.99321 1.57493 4.03784 1.97259 3.96768 2.35812C3.89751 2.74366 3.71563 3.10009 3.44463 3.38314C3.17363 3.66619 2.82545 3.8634 2.44334 3.95025C2.06123 4.03711 1.66202 4.0098 1.2953 3.87171C0.928574 3.73361 0.610497 3.49083 0.380572 3.17351C0.150648 2.85618 0.0190067 2.4783 0.00199999 2.0868L0 2L0.00199999 1.9132C0.0243671 1.3983 0.244636 0.911911 0.616871 0.555464C0.989107 0.199016 1.48457 2.97803e-05 1.99994 3.33956e-09Z" fill="#37505C"/>
</svg>
