<svg width="17" height="15" viewBox="0 0 17 15" fill="none" xmlns="http://www.w3.org/2000/svg">
<path d="M11.4989 6.29932L8.855 8.95542C8.67974 9.13149 8.44207 9.23041 8.19426 9.23041C7.94644 9.23041 7.70877 9.13149 7.53352 8.95542L4.88961 6.29932C4.71437 6.12308 4.61597 5.8841 4.61606 5.63496C4.61614 5.38581 4.71471 5.14691 4.89008 4.9708C5.06544 4.79469 5.30324 4.6958 5.55115 4.69589C5.79906 4.69597 6.03679 4.79503 6.21203 4.97126L7.25969 6.02413L7.25969 0.939215C7.25969 0.69012 7.35815 0.451227 7.53342 0.27509C7.70868 0.0989527 7.94639 0 8.19426 0C8.44212 0 8.67984 0.0989527 8.8551 0.27509C9.03037 0.451227 9.12883 0.69012 9.12883 0.939215V6.02413L10.1765 4.97126C10.3517 4.79503 10.5895 4.69597 10.8374 4.69589C11.0853 4.6958 11.3231 4.79469 11.4984 4.9708C11.6738 5.14691 11.7724 5.38581 11.7725 5.63496C11.7725 5.8841 11.6741 6.12308 11.4989 6.29932Z" fill="#0B2027"/>
<path d="M-3.13852e-07 7.81991C0.000252155 7.59115 0.0874131 7.37112 0.243674 7.20478C0.399934 7.03844 0.6135 6.93834 0.840736 6.92494C1.06797 6.91153 1.29172 6.98583 1.46628 7.13265C1.64083 7.27948 1.75301 7.48774 1.7799 7.7149L1.78615 7.81991L1.78615 12.3075C1.78618 12.5273 1.86649 12.7395 2.01184 12.9037C2.1572 13.068 2.35749 13.173 2.57474 13.1987L2.67923 13.205L13.3961 13.205C13.6149 13.2049 13.826 13.1242 13.9895 12.9782C14.1529 12.8321 14.2574 12.6308 14.283 12.4125L14.2892 12.3075L14.2892 8.26866C14.2895 8.03991 14.3766 7.81988 14.5329 7.65354C14.6891 7.4872 14.9027 7.3871 15.1299 7.37369C15.3572 7.36028 15.5809 7.43458 15.7555 7.58141C15.93 7.72823 16.0422 7.9365 16.0691 8.16366L16.0754 8.26866L16.0754 12.3075C16.0754 12.9943 15.8143 13.6551 15.3455 14.1548C14.8766 14.6545 14.2355 14.9552 13.5533 14.9955L13.3961 15L2.67923 15C1.99583 15 1.33826 14.7376 0.841044 14.2665C0.343828 13.7953 0.0445577 13.151 0.00446537 12.4654L-1.17694e-07 12.3075L-3.13852e-07 7.81991Z" fill="#0B2027"/>
</svg>
