<svg width="14" height="14" viewBox="0 0 14 14" fill="none" xmlns="http://www.w3.org/2000/svg">
<path d="M11.6611 11.056C11.9859 11.0562 12.2498 11.3238 12.25 11.6527C12.25 11.9824 11.986 12.2502 11.6611 12.2504H8.33008C8.0051 12.2504 7.74023 11.9825 7.74023 11.6527C7.7404 11.3236 8.0052 11.056 8.33008 11.056H11.6611ZM7.14062 2.30798C7.67294 1.6246 8.60164 1.56205 9.35059 2.15759L10.2109 2.84119C10.5638 3.1171 10.7994 3.48114 10.8799 3.86365C10.9726 4.28432 10.8732 4.6977 10.5947 5.05505L5.46973 11.683C5.23457 11.9839 4.88788 12.1532 4.5166 12.1595L2.47363 12.1849C2.36221 12.1849 2.2689 12.1089 2.24414 12.0023L1.78027 9.98962C1.69988 9.61972 1.78045 9.23741 2.01562 8.94275L5.64941 4.23962C5.71132 4.16457 5.82227 4.15268 5.89648 4.20837L7.42578 5.42517C7.52468 5.50645 7.66067 5.55024 7.80273 5.53162C8.10601 5.494 8.31116 5.2179 8.28027 4.92322C8.2617 4.77272 8.18693 4.64716 8.08789 4.5531C8.05486 4.52636 6.61618 3.37263 6.60254 3.36169C6.50969 3.28645 6.49115 3.14849 6.56543 3.05505L7.14062 2.30798Z" fill="#F8F9FA"/>
</svg>
