<svg width="44" height="44" viewBox="0 0 44 44" fill="none" xmlns="http://www.w3.org/2000/svg">
<circle cx="22.0887" cy="21.9111" r="21.4111" fill="#F8F9FA" stroke="#CED9DC"/>
<path d="M22.2862 14.2422C22.5019 14.2424 22.7094 14.3246 22.8663 14.472C23.0231 14.6193 23.1175 14.8207 23.1302 15.035C23.1428 15.2493 23.0727 15.4603 22.9343 15.6249C22.7958 15.7895 22.5994 15.8953 22.3852 15.9206L22.2862 15.9265H18.0544C17.8471 15.9266 17.6471 16.0023 17.4921 16.1394C17.3372 16.2764 17.2383 16.4653 17.214 16.6702L17.2081 16.7687V26.8747C17.2081 27.081 17.2842 27.2801 17.422 27.4342C17.5597 27.5884 17.7495 27.6869 17.9554 27.711L18.0544 27.7169H21.863C22.0787 27.7171 22.2862 27.7993 22.4431 27.9467C22.5999 28.094 22.6943 28.2954 22.707 28.5097C22.7196 28.724 22.6496 28.935 22.5111 29.0996C22.3727 29.2642 22.1763 29.37 21.962 29.3953L21.863 29.4012H18.0544C17.4068 29.4013 16.7836 29.155 16.3124 28.7129C15.8412 28.2708 15.5576 27.6663 15.5196 27.0229L15.5154 26.8747V16.7687C15.5153 16.1243 15.7628 15.5042 16.2071 15.0353C16.6514 14.5664 17.259 14.2842 17.9055 14.2464L18.0544 14.2422H22.2862ZM27.1163 18.8438L29.5098 21.2263C29.6685 21.3842 29.7576 21.5984 29.7576 21.8217C29.7576 22.045 29.6685 22.2592 29.5098 22.4171L27.1163 24.7996C26.9575 24.9575 26.7422 25.0462 26.5177 25.0461C26.2931 25.046 26.0779 24.9572 25.9192 24.7992C25.7605 24.6412 25.6714 24.4269 25.6714 24.2035C25.6715 23.9801 25.7608 23.7659 25.9196 23.6079L26.8683 22.6639H22.2862C22.0617 22.6639 21.8465 22.5751 21.6877 22.4172C21.529 22.2593 21.4398 22.0451 21.4398 21.8217C21.4398 21.5984 21.529 21.3841 21.6877 21.2262C21.8465 21.0683 22.0617 20.9795 22.2862 20.9795H26.8683L25.9196 20.0355C25.7608 19.8776 25.6715 19.6633 25.6714 19.4399C25.6714 19.2165 25.7605 19.0022 25.9192 18.8442C26.0779 18.6862 26.2931 18.5974 26.5177 18.5973C26.7422 18.5972 26.9575 18.6859 27.1163 18.8438Z" fill="#E53130"/>
</svg>
