<svg width="12" height="8" viewBox="0 0 12 8" fill="none" xmlns="http://www.w3.org/2000/svg">
<path d="M11.7157 1.7158L6.71567 6.7158C6.62271 6.80953 6.51211 6.88392 6.39025 6.93469C6.26839 6.98546 6.13769 7.0116 6.00567 7.0116C5.87366 7.0116 5.74296 6.98546 5.6211 6.93469C5.49924 6.88392 5.38864 6.80953 5.29567 6.7158L0.295675 1.7158C0.201947 1.62283 0.127551 1.51223 0.0767822 1.39037C0.0260133 1.26851 -0.000124027 1.13781 -0.000124022 1.0058C-0.000124016 0.873786 0.0260133 0.74308 0.0767822 0.621221C0.127551 0.499362 0.201947 0.388762 0.295675 0.295799C0.388638 0.20207 0.499238 0.127676 0.621098 0.0769076C0.742957 0.0261389 0.873663 -4.86775e-07 1.00567 -4.81004e-07C1.13769 -4.75234e-07 1.26839 0.026139 1.39025 0.0769076C1.51211 0.127676 1.62271 0.20207 1.71567 0.295799L6.00567 4.5958L10.2957 0.295799C10.484 0.107495 10.7394 0.00170702 11.0057 0.00170703C11.1375 0.00170704 11.2681 0.027678 11.3899 0.0781383C11.5117 0.128599 11.6224 0.202561 11.7157 0.295799C11.904 0.484103 12.0098 0.739497 12.0098 1.0058C12.0098 1.13766 11.9838 1.26823 11.9333 1.39005C11.8829 1.51187 11.8089 1.62256 11.7157 1.7158Z" fill="#CDD8DB"/>
</svg>
