<svg width="366" height="72" viewBox="0 0 366 72" fill="none" xmlns="http://www.w3.org/2000/svg">
<g clip-path="url(#clip0_4_977)">
<path fill-rule="evenodd" clip-rule="evenodd" d="M2.85265 30.8476L31.0515 3.12431C34.0155 0.212224 38.8637 0.212224 41.8265 3.12431L70.0255 30.8476C72.9883 33.7609 72.9883 38.5271 70.0243 41.4403L41.8254 69.1636C38.8626 72.0779 34.0132 72.0779 31.0492 69.1636L2.85036 41.4414C-0.112456 38.5282 -0.110163 33.7609 2.85265 30.8476ZM5.66188 33.5816L33.8344 5.88495C35.2671 4.47623 37.6144 4.47623 39.0471 5.88495L67.2197 33.5816C68.6524 34.9903 68.6524 37.2977 67.2185 38.7075L39.046 66.4019C37.6133 67.8106 35.2671 67.8106 33.8332 66.4019L5.66188 38.7075C4.22804 37.2977 4.22804 34.9903 5.66188 33.5816Z" fill="#00D29D"/>
<path d="M107.57 22.4911C107.57 22.1782 107.622 21.8953 107.721 21.6492C107.824 21.3942 107.981 21.1782 108.19 21.0022C108.391 20.8307 108.614 20.7027 108.86 20.618C109.106 20.5334 109.369 20.4911 109.652 20.4911C109.92 20.4911 110.174 20.5345 110.412 20.6191C110.651 20.7049 110.869 20.8341 111.068 21.0022C111.481 21.3519 111.688 21.8341 111.688 22.4455V37.7977C111.688 39.2432 111.518 40.5873 111.181 41.8301C110.844 43.0751 110.336 44.2188 109.659 45.2578C108.985 46.2912 108.207 47.1977 107.328 47.9772C106.448 48.7556 105.463 49.406 104.378 49.9282C103.295 50.4483 102.18 50.8392 101.031 51.0987C99.8803 51.3581 98.6963 51.4895 97.4813 51.4895C96.2653 51.4895 95.0813 51.3592 93.9305 51.0987C92.7844 50.8403 91.6669 50.4494 90.5849 49.9282C89.4972 49.4048 88.5138 48.7556 87.6347 47.9783C86.7545 47.1999 85.9774 46.2934 85.3034 45.2589C84.6272 44.221 84.1183 43.0795 83.7813 41.8323C83.4443 40.5895 83.2759 39.2454 83.2759 37.7999V22.3085C83.2759 22.0223 83.3274 21.765 83.4306 21.5379C83.536 21.3051 83.6965 21.108 83.9074 20.9465C84.1068 20.7951 84.3246 20.6793 84.5607 20.6058C84.7945 20.5301 85.0444 20.4911 85.3103 20.4911C85.5911 20.4911 85.8536 20.5312 86.0977 20.6113C86.3464 20.6915 86.5699 20.814 86.7671 20.9733C86.9768 21.1425 87.135 21.3441 87.2381 21.5768C87.3413 21.8062 87.3929 22.0668 87.3929 22.353V37.7988C87.3929 38.8423 87.5109 39.8078 87.7493 40.6953C87.9854 41.5784 88.3396 42.388 88.8106 43.1207C89.284 43.8546 89.8307 44.5005 90.4531 45.0551C91.0743 45.6097 91.77 46.074 92.5391 46.4482C93.3128 46.8235 94.1116 47.1075 94.9346 47.2957C95.7564 47.4839 96.6057 47.5774 97.4813 47.5774C99.2292 47.5774 100.878 47.201 102.425 46.4471C103.194 46.0729 103.891 45.6085 104.511 45.054C105.133 44.4994 105.681 43.8524 106.152 43.1196C106.624 42.3858 106.978 41.5784 107.215 40.6942C107.451 39.8066 107.57 38.8423 107.57 37.7977V22.4911Z" fill="#00D29D"/>
<path d="M131.583 20.863C133.638 20.863 135.534 21.2695 137.271 22.0858C139.009 22.9009 140.313 24.0669 141.182 25.5803V13.9876C141.182 13.3662 141.4 12.8718 141.834 12.502C142.269 12.1323 142.782 11.9486 143.375 11.9486C143.967 11.9486 144.472 12.1334 144.885 12.502C145.3 12.8718 145.508 13.3651 145.508 13.9876V48.8235C145.508 49.446 145.311 49.9405 144.916 50.3091C144.521 50.6777 143.988 50.8626 143.316 50.8626C141.973 50.8626 141.301 50.1821 141.301 48.8235V46.4348C140.353 48.1442 138.991 49.406 137.214 50.2211C135.436 51.0374 133.56 51.445 131.583 51.445C128.78 51.445 126.231 50.8336 123.938 49.6109C121.648 48.387 119.82 46.6097 118.458 44.28C117.096 41.9492 116.413 39.153 116.413 35.8912C116.413 33.6773 116.917 31.4145 117.924 29.1037C118.932 26.793 120.571 24.8408 122.842 23.2495C125.114 21.657 128.028 20.863 131.583 20.863ZM131.937 47.4271C134.585 47.2712 136.788 46.3981 138.544 44.8056C140.302 43.2121 141.181 41.0973 141.181 38.4547V33.8533C141.181 31.3287 140.293 29.2318 138.514 27.5614C136.737 25.891 134.485 24.999 131.76 24.8809C129.033 24.8809 126.852 25.4734 125.212 26.6582C123.571 27.8431 122.417 29.2697 121.746 30.9401C121.073 32.6094 120.737 34.2018 120.737 35.7164C120.737 38.5115 121.33 40.7844 122.514 42.5316C123.7 44.2789 125.151 45.5317 126.87 46.289C128.588 47.0462 130.278 47.4271 131.937 47.4271Z" fill="#00D29D"/>
<path d="M149.685 23.4912C149.603 23.3308 149.563 23.0914 149.563 22.7751C149.563 22.1782 149.807 21.6816 150.292 21.2829C150.777 20.8853 151.343 20.686 151.992 20.686C152.396 20.686 152.77 20.7851 153.115 20.9844C153.459 21.1838 153.712 21.4822 153.874 21.8809L165.472 44.6264L177.19 21.8219C177.353 21.4633 177.605 21.1849 177.95 20.9856C178.294 20.7862 178.67 20.6871 179.074 20.6871C179.641 20.6871 180.157 20.8564 180.623 21.1938C181.089 21.5323 181.322 21.9811 181.322 22.5379C181.322 22.7361 181.261 22.9945 181.138 23.313L167.415 50.1176C167.214 50.5552 166.918 50.8927 166.535 51.1321C166.15 51.3715 165.755 51.4907 165.351 51.4907C164.582 51.4907 163.933 51.0541 163.408 50.1777L149.685 23.4912Z" fill="#00D29D"/>
<path d="M36.2525 42.7009C36.751 43.1909 36.9998 43.7009 36.9998 44.2333C36.9998 44.8056 36.7717 45.3057 36.3144 45.7344C35.857 46.1642 35.3367 46.3792 34.7544 46.3792C34.2146 46.3792 33.6736 46.1542 33.1338 45.7043L22.4069 35.4658C21.7421 34.9346 21.4097 34.3622 21.4097 33.7497C21.4097 33.0537 21.7628 32.4011 22.4688 31.7875L33.2564 21.6114C33.755 21.0802 34.3372 20.814 35.002 20.814C35.5419 20.814 36.021 21.0089 36.4359 21.3964C36.8519 21.7862 37.0605 22.245 37.0605 22.7751C37.0605 23.2651 36.8107 23.7963 36.3121 24.3687L26.2717 33.6874L36.249 42.6998L36.2525 42.7009Z" fill="#00D29D"/>
<path d="M36.6273 47.7945C36.1287 48.2856 35.8788 48.7957 35.8788 49.3257C35.8788 49.8993 36.1069 50.3993 36.5642 50.8269C37.0216 51.2567 37.5408 51.4717 38.123 51.4717C38.6629 51.4717 39.2038 51.2467 39.7448 50.7957L50.4706 40.5594C51.1353 40.0271 51.4689 39.4558 51.4689 38.8433C51.4689 38.1484 51.1159 37.4948 50.4075 36.8812L39.6199 26.7039C39.1213 26.1727 38.5391 25.9065 37.8743 25.9065C37.3345 25.9065 36.8554 26.1014 36.4416 26.4889C36.0244 26.8765 35.8169 27.3364 35.8169 27.8676C35.8169 28.3576 36.0668 28.8899 36.5654 29.4612L46.6057 38.7799L36.6273 47.7945Z" fill="#00D29D"/>
<path d="M232.695 48.4256C232.695 51.125 232.06 53.428 230.791 55.3367C229.521 57.2454 227.785 58.6809 225.583 59.6453C223.381 60.6085 220.911 61.0907 218.173 61.0907C215.792 61.0907 213.699 60.8012 211.893 60.2232C210.088 59.6453 208.411 58.662 206.864 57.2733C206.586 57.0038 206.448 56.7332 206.448 56.4637C206.448 56.1942 206.546 55.9815 206.746 55.8278C206.944 55.6741 207.182 55.5973 207.46 55.5973C207.777 55.5973 208.035 55.6741 208.233 55.8278C209.94 57.1007 211.517 57.9682 212.966 58.4303C214.415 58.8936 216.15 59.1241 218.174 59.1241C220.435 59.1241 222.509 58.7288 224.394 57.9392C226.28 57.1485 227.787 55.9436 228.918 54.3244C230.049 52.7052 230.614 50.7386 230.614 48.4256V43.048C229.662 45.2463 228.144 46.9412 226.061 48.1372C223.977 49.3321 221.666 49.9301 219.126 49.9301C216.428 49.9301 213.908 49.3522 211.568 48.1951C209.226 47.0381 207.342 45.332 205.912 43.077C204.484 40.8219 203.77 38.1326 203.77 35.01C203.77 31.6558 204.584 28.6969 206.21 26.1334C207.837 23.5688 210.178 21.6712 213.234 20.4362C215.02 19.7034 216.904 19.337 218.888 19.337C221.467 19.337 223.928 20.0119 226.268 21.3616C228.371 22.7113 229.82 24.4262 230.613 26.5087V20.7836C230.613 20.0887 230.95 19.7424 231.625 19.7424C231.943 19.7424 232.201 19.8393 232.399 20.0319C232.597 20.2257 232.697 20.4751 232.697 20.7836L232.695 48.4256ZM224.422 22.6912C222.438 21.7658 220.433 21.3226 218.41 21.3616C215.593 21.5553 213.153 22.4217 211.088 23.9641C209.303 25.3138 207.983 26.933 207.131 28.8217C206.278 30.7103 205.851 32.7349 205.851 34.8942C205.851 37.323 206.366 39.5212 207.398 41.4867C208.429 43.4534 209.947 45.0147 211.951 46.1706C213.955 47.3276 216.346 47.9056 219.124 47.9056C221.306 47.9056 223.271 47.4234 225.017 46.459C226.762 45.4957 228.131 44.2039 229.123 42.5848C230.115 40.9656 230.611 39.1916 230.611 37.2639V32.2326C230.611 30.1123 230.074 28.2225 229.004 26.5655C227.932 24.9073 226.405 23.6166 224.422 22.6912Z" fill="#003B4C"/>
<path d="M244.479 27.3172C245.114 25.12 246.444 23.3372 248.468 21.9674C250.492 20.5988 252.754 19.915 255.253 19.915C255.967 19.915 256.325 20.2424 256.325 20.8984C256.325 21.5543 255.967 21.8817 255.253 21.8817C251.682 21.8817 248.993 23.1445 247.188 25.6691C245.383 28.1947 244.479 31.3652 244.479 35.1826V48.252C244.479 48.5604 244.381 48.811 244.183 49.0036C243.983 49.1963 243.746 49.2932 243.467 49.2932C243.15 49.2932 242.892 49.1963 242.694 49.0036C242.495 48.811 242.396 48.5604 242.396 48.252V20.8984C242.396 20.6289 242.495 20.3972 242.694 20.2046C242.892 20.0119 243.15 19.915 243.467 19.915C243.746 19.915 243.983 20.0119 244.183 20.2046C244.381 20.3972 244.479 20.6289 244.479 20.8984V27.3172Z" fill="#003B4C"/>
<path d="M274.657 49.929C272.276 49.929 270.074 49.4858 268.05 48.5993C266.026 47.7118 264.28 46.4401 262.812 44.7819C260.432 41.9288 259.241 38.5557 259.241 34.6614C259.241 32.4631 259.678 30.3439 260.551 28.3005C261.424 26.257 262.684 24.493 264.331 23.0086C265.978 21.5241 267.913 20.474 270.134 19.8571C271.483 19.5096 272.991 19.3359 274.658 19.3359C276.126 19.3359 277.614 19.5096 279.122 19.8571C282.257 20.7056 284.797 22.4017 286.741 24.9463C288.684 27.4909 289.796 30.3629 290.074 33.5634C290.312 37.9588 289.121 41.6983 286.502 44.7819C285.034 46.4401 283.287 47.7118 281.264 48.5993C279.241 49.4858 277.037 49.929 274.657 49.929ZM278.466 21.8237C277.196 21.5152 275.907 21.3604 274.598 21.3604C273.368 21.3604 272.119 21.5152 270.848 21.8237C267.952 22.5943 265.65 24.2135 263.943 26.6813C262.237 29.149 261.384 31.8863 261.384 34.893C261.384 36.4732 261.642 38.0067 262.158 39.4911C262.674 40.9745 263.447 42.3152 264.479 43.5101C265.708 44.9367 267.217 46.0347 269.003 46.8064C270.788 47.577 272.673 47.9635 274.657 47.9635C276.681 47.9635 278.595 47.5782 280.4 46.8064C282.205 46.0358 283.723 44.9367 284.954 43.5101C285.985 42.3152 286.759 40.9845 287.275 39.5201C287.79 38.0546 288.048 36.5323 288.048 34.9509C288.048 31.9442 287.185 29.1969 285.459 26.7102C283.733 24.2235 281.403 22.5954 278.466 21.8237Z" fill="#003B4C"/>
<path d="M299.834 37.2639C299.834 39.2684 300.36 41.0903 301.411 42.7284C302.464 44.3676 303.853 45.6494 305.579 46.5748C307.305 47.4991 309.159 47.9624 311.143 47.9624C313.206 47.9624 315.27 47.4122 317.334 46.3142C319.397 45.2151 321.103 43.6449 322.452 41.6014C323.802 39.5579 324.477 37.1871 324.477 34.4888V20.9562C324.477 20.2624 324.814 19.915 325.488 19.915C325.805 19.915 326.063 20.0119 326.261 20.2045C326.46 20.3972 326.559 20.6477 326.559 20.9562V48.3677C326.559 48.6372 326.46 48.8688 326.261 49.0615C326.062 49.2541 325.805 49.351 325.488 49.351C324.814 49.351 324.477 49.0036 324.477 48.3098V40.2139C323.882 42.3342 322.87 44.1271 321.44 45.5915C320.012 47.057 318.404 48.1461 316.62 48.8588C314.834 49.5715 313.088 49.929 311.382 49.929C309.041 49.929 306.828 49.4368 304.746 48.4535C302.662 47.4701 300.976 46.0158 299.686 44.087C298.397 42.1593 297.753 39.8842 297.753 37.2628V20.954C297.753 20.2602 298.09 19.9128 298.765 19.9128C299.082 19.9128 299.34 20.0096 299.539 20.2023C299.737 20.3949 299.837 20.6455 299.837 20.954V37.2628L299.834 37.2639Z" fill="#003B4C"/>
<path d="M356.201 48.8878C354.535 49.5816 352.431 49.929 349.893 49.929C347.353 49.929 345.042 49.331 342.958 48.1361C340.875 46.9412 339.357 45.2452 338.405 43.0469V59.76C338.405 60.4537 338.068 60.8012 337.393 60.8012C337.075 60.8012 336.817 60.7054 336.619 60.5117C336.421 60.319 336.321 60.0684 336.321 59.76V20.9562C336.321 20.6478 336.421 20.3972 336.619 20.2045C336.817 20.0119 337.075 19.915 337.393 19.915C338.068 19.915 338.405 20.2624 338.405 20.9562V26.5087C339.198 24.4262 340.647 22.7113 342.75 21.3616C345.09 20.013 347.551 19.337 350.13 19.337C352.789 19.337 355.278 19.9829 357.599 21.2747C359.92 22.5665 361.776 24.4073 363.164 26.7982C364.553 29.188 365.248 31.9453 365.248 35.0679C365.248 38.1526 364.455 40.9578 362.867 43.4823C361.28 46.008 359.057 47.8076 356.201 48.8878ZM338.405 37.2639C338.405 39.2306 338.901 41.0034 339.894 42.5848C340.885 44.165 342.255 45.4278 344 46.3722C345.746 47.3165 347.71 47.8276 349.893 47.9045C352.67 47.9423 355.061 47.3833 357.064 46.2274C359.069 45.0703 360.586 43.5091 361.618 41.5435C362.649 39.5769 363.165 37.3797 363.165 34.951C363.165 31.9442 362.471 29.4185 361.081 27.3751C359.692 25.3316 357.997 23.8193 355.993 22.836C353.989 21.8527 352.074 21.3605 350.249 21.3605C348.185 21.3605 346.251 21.7848 344.446 22.6333C342.641 23.4819 341.183 24.7247 340.071 26.3628C338.961 28.002 338.405 29.9575 338.405 32.2326V37.2639Z" fill="#003B4C"/>
<path d="M191.765 11.6709C191.77 11.1854 192.176 10.7956 192.672 10.8001C193.168 10.8045 193.567 11.201 193.564 11.6865L191.765 11.6709ZM191.34 60.603L191.765 11.6709L193.564 11.6865L193.138 60.6186L191.34 60.603ZM193.138 60.6186C193.134 61.1041 192.728 61.4939 192.232 61.4894C191.736 61.4849 191.337 61.0885 191.34 60.603L193.138 60.6186Z" fill="#003B4C"/>
</g>
<defs>
<clipPath id="clip0_4_977">
<rect width="366" height="72" fill="white"/>
</clipPath>
</defs>
</svg>
