<svg width="73" height="71" viewBox="0 0 73 71" fill="none" xmlns="http://www.w3.org/2000/svg">
<g clip-path="url(#clip0_4_990)">
<path fill-rule="evenodd" clip-rule="evenodd" d="M2.85265 30.4916L31.0515 2.76833C34.0155 -0.143764 38.8637 -0.143764 41.8265 2.76833L70.0255 30.4916C72.9883 33.4048 72.9883 38.1711 70.0243 41.0843L41.8254 68.8076C38.8626 71.7219 34.0132 71.7219 31.0492 68.8076L2.85036 41.0854C-0.112456 38.1722 -0.110163 33.4048 2.85265 30.4916ZM5.66188 33.2256L33.8344 5.52897C35.2671 4.12025 37.6144 4.12025 39.0471 5.52897L67.2197 33.2256C68.6524 34.6343 68.6524 36.9417 67.2185 38.3515L39.046 66.0459C37.6133 67.4546 35.2671 67.4546 33.8332 66.0459L5.66188 38.3515C4.22804 36.9417 4.22804 34.6343 5.66188 33.2256Z" fill="#00D29D"/>
<path d="M36.2525 42.3449C36.751 42.8349 36.9998 43.3449 36.9998 43.8773C36.9998 44.4496 36.7717 44.9497 36.3144 45.3784C35.857 45.8082 35.3367 46.0232 34.7544 46.0232C34.2146 46.0232 33.6736 45.7982 33.1338 45.3483L22.4069 35.1098C21.7421 34.5786 21.4097 34.0062 21.4097 33.3937C21.4097 32.6977 21.7628 32.0451 22.4688 31.4315L33.2564 21.2554C33.755 20.7242 34.3372 20.458 35.002 20.458C35.5419 20.458 36.0209 20.6529 36.4359 21.0404C36.8519 21.4302 37.0605 21.889 37.0605 22.4191C37.0605 22.9091 36.8107 23.4403 36.3121 24.0127L26.2717 33.3314L36.249 42.3438L36.2525 42.3449Z" fill="#00D29D"/>
<path d="M36.6273 47.4385C36.1287 47.9296 35.8788 48.4397 35.8788 48.9697C35.8788 49.5432 36.1069 50.0433 36.5642 50.4709C37.0216 50.9007 37.5408 51.1157 38.123 51.1157C38.6629 51.1157 39.2038 50.8907 39.7448 50.4397L50.4706 40.2034C51.1353 39.6711 51.4689 39.0998 51.4689 38.4873C51.4689 37.7924 51.1159 37.1388 50.4075 36.5252L39.6199 26.3479C39.1213 25.8167 38.5391 25.5505 37.8743 25.5505C37.3345 25.5505 36.8554 25.7454 36.4416 26.1329C36.0244 26.5205 35.8169 26.9804 35.8169 27.5116C35.8169 28.0016 36.0668 28.5339 36.5654 29.1052L46.6057 38.4239L36.6273 47.4385Z" fill="#00D29D"/>
</g>
<defs>
<clipPath id="clip0_4_990">
<rect width="73" height="71" fill="white"/>
</clipPath>
</defs>
</svg>
