<svg width="44" height="44" viewBox="0 0 44 44" fill="none" xmlns="http://www.w3.org/2000/svg">
<circle cx="21.9111" cy="21.9111" r="21.4111" fill="#F8F9FA" stroke="#CED9DC"/>
<path d="M21.968 26.8994H27.643C27.864 26.9118 28.0845 26.8674 28.2834 26.7704C28.4824 26.6734 28.6532 26.527 28.7795 26.3453C28.9058 26.1636 28.9835 25.9525 29.0051 25.7322C29.0268 25.5119 28.9916 25.2898 28.903 25.0869C28.603 24.1803 27.4072 23.0928 27.4072 22.0228C27.4072 19.6478 27.4072 19.0228 26.2372 17.6261C25.8585 17.1766 25.3891 16.8122 24.8597 16.5569L24.2072 16.2403C24.0977 16.1742 24.0032 16.0859 23.9299 15.9812C23.8565 15.8764 23.8059 15.7574 23.7813 15.6319C23.7161 15.209 23.4924 14.8266 23.1557 14.5624C22.819 14.2983 22.3944 14.1721 21.968 14.2094C21.5493 14.1843 21.1363 14.3161 20.8097 14.5792C20.483 14.8422 20.2661 15.2176 20.2013 15.6319C20.172 15.7618 20.1144 15.8836 20.0328 15.9887C19.9511 16.0938 19.8473 16.1797 19.7288 16.2403L19.0763 16.5569C18.5472 16.8123 18.078 17.1766 17.6997 17.6261C16.5305 19.0228 16.5305 19.6478 16.5305 22.0228C16.5305 23.0928 15.3888 24.0711 15.0888 25.0319C14.908 25.6128 14.808 26.8994 16.3222 26.8994H21.968Z" stroke="#CED9DC" stroke-width="1.5" stroke-linecap="round" stroke-linejoin="round"/>
<path d="M24.6871 26.8994C24.6943 27.2585 24.6288 27.6153 24.4947 27.9484C24.3606 28.2815 24.1606 28.5841 23.9066 28.8381C23.6527 29.092 23.3501 29.292 23.0169 29.4261C22.6838 29.5603 22.327 29.6257 21.968 29.6186C21.6088 29.6262 21.2519 29.5611 20.9186 29.4271C20.5853 29.2931 20.2825 29.0931 20.0286 28.8391C19.7746 28.585 19.5747 28.2822 19.4408 27.9489C19.3069 27.6155 19.2419 27.2585 19.2496 26.8994" stroke="#CED9DC" stroke-width="1.5" stroke-linecap="round" stroke-linejoin="round"/>
</svg>
