<svg width="44" height="44" viewBox="0 0 44 44" fill="none" xmlns="http://www.w3.org/2000/svg">
<circle cx="21.9111" cy="21.9111" r="21.4111" fill="#F8F9FA" stroke="#CED9DC"/>
<path d="M29.6343 25.8801C29.6014 26.2069 29.4836 26.5195 29.2926 26.7867C29.1188 27.0443 28.8841 27.2551 28.6094 27.4005C28.3347 27.5458 28.0284 27.6212 27.7176 27.6201H25.2676C25.2244 27.8444 25.1602 28.0643 25.076 28.2767C24.9082 28.6844 24.6613 29.0547 24.3494 29.3662C24.0376 29.6777 23.6671 29.9243 23.2593 30.0917C22.8468 30.2584 22.4043 30.3401 21.9593 30.3334H21.8926C21.4809 30.3296 21.0737 30.2476 20.6926 30.0917C20.2786 29.931 19.9036 29.6838 19.5926 29.3667C19.2786 29.0571 19.0318 28.686 18.8676 28.2767C18.7834 28.064 18.7192 27.8439 18.676 27.6192H16.326C16.0191 27.6438 15.7108 27.592 15.4288 27.4686C15.1467 27.3451 14.8995 27.1538 14.7093 26.9117C14.5293 26.6195 14.4166 26.291 14.3791 25.9499C14.3416 25.6087 14.3804 25.2635 14.4926 24.9392C14.6738 24.4582 14.9206 24.0044 15.226 23.5909C15.577 23.1669 15.8124 22.6594 15.9093 22.1176C15.9093 19.7126 15.9093 18.8967 17.226 17.3317C17.6601 16.8131 18.1999 16.3932 18.8093 16.1001L19.4593 15.7834C19.4911 15.7633 19.5193 15.7379 19.5426 15.7084C19.5678 15.6769 19.585 15.6397 19.5926 15.6001C19.6873 15.1937 19.8821 14.8175 20.1594 14.5057C20.4367 14.1939 20.7876 13.9565 21.1801 13.8151C21.5728 13.6733 21.9947 13.6321 22.4074 13.6953C22.8201 13.7585 23.2104 13.924 23.5426 14.1767C23.9984 14.5398 24.2968 15.0644 24.376 15.6417V15.7251C24.4002 15.7591 24.4315 15.7875 24.4676 15.8084L25.0676 16.1001C25.676 16.3917 26.216 16.8084 26.651 17.3234C27.9676 18.8967 27.9676 19.7126 27.9676 22.1176C28.0793 22.6926 28.3343 23.2309 28.7093 23.6826C29.0093 24.0834 29.2526 24.5234 29.4343 24.9892C29.571 25.2659 29.6401 25.5709 29.6343 25.8801Z" fill="#00D29D"/>
</svg>
