<svg width="15" height="15" viewBox="0 0 15 15" fill="none" xmlns="http://www.w3.org/2000/svg">
<path d="M7.5 0C3.36452 0 0 3.36453 0 7.5C0 11.6355 3.36452 15 7.5 15C11.6355 15 15 11.6355 15 7.5C15 3.36453 11.6355 0 7.5 0ZM7.5 1.125C11.0275 1.125 13.875 3.97252 13.875 7.5C13.875 11.0275 11.0275 13.875 7.5 13.875C3.97252 13.875 1.125 11.0275 1.125 7.5C1.125 3.97252 3.97252 1.125 7.5 1.125ZM7.49121 3.74194C7.34215 3.74427 7.20012 3.80567 7.0963 3.91265C6.99248 4.01963 6.93536 4.16344 6.9375 4.3125V6.9375H4.3125C4.23796 6.93645 4.16396 6.95022 4.09479 6.97801C4.02562 7.00581 3.96266 7.04707 3.90958 7.09941C3.8565 7.15175 3.81435 7.21411 3.78557 7.28288C3.7568 7.35165 3.74199 7.42545 3.74199 7.5C3.74199 7.57454 3.7568 7.64835 3.78557 7.71712C3.81435 7.78589 3.8565 7.84825 3.90958 7.90059C3.96266 7.95293 4.02562 7.99419 4.09479 8.02199C4.16396 8.04978 4.23796 8.06355 4.3125 8.0625H6.9375V10.6875C6.93645 10.762 6.95022 10.836 6.97801 10.9052C7.00581 10.9744 7.04707 11.0373 7.09941 11.0904C7.15175 11.1435 7.21411 11.1857 7.28288 11.2144C7.35165 11.2432 7.42545 11.258 7.5 11.258C7.57454 11.258 7.64835 11.2432 7.71712 11.2144C7.78589 11.1857 7.84825 11.1435 7.90059 11.0904C7.95293 11.0373 7.99419 10.9744 8.02199 10.9052C8.04978 10.836 8.06355 10.762 8.0625 10.6875V8.0625H10.6875C10.762 8.06355 10.836 8.04978 10.9052 8.02199C10.9744 7.99419 11.0373 7.95293 11.0904 7.90059C11.1435 7.84825 11.1857 7.78589 11.2144 7.71712C11.2432 7.64835 11.258 7.57454 11.258 7.5C11.258 7.42545 11.2432 7.35165 11.2144 7.28288C11.1857 7.21411 11.1435 7.15175 11.0904 7.09941C11.0373 7.04707 10.9744 7.00581 10.9052 6.97801C10.836 6.95022 10.762 6.93645 10.6875 6.9375H8.0625V4.3125C8.06358 4.23721 8.04953 4.16247 8.0212 4.09272C7.99286 4.02296 7.95081 3.9596 7.89753 3.90639C7.84426 3.85318 7.78084 3.81121 7.71105 3.78296C7.64125 3.75472 7.5665 3.74077 7.49121 3.74194Z" fill="#00D29D"/>
</svg>
