<svg width="31" height="31" viewBox="0 0 31 31" fill="none" xmlns="http://www.w3.org/2000/svg">
<path d="M23.1449 18.4967C22.8103 18.821 22.6566 19.2898 22.7328 19.7497L23.8811 26.1047C23.978 26.6433 23.7507 27.1884 23.2999 27.4997C22.8581 27.8226 22.2704 27.8613 21.7886 27.603L16.0678 24.6192C15.8689 24.5133 15.6481 24.4565 15.422 24.45H15.072C14.9506 24.4681 14.8317 24.5069 14.7232 24.5663L9.00114 27.5643C8.71826 27.7063 8.39793 27.7567 8.08406 27.7063C7.31939 27.5617 6.80918 26.8332 6.93447 26.0646L8.08406 19.7096C8.16026 19.2459 8.00656 18.7745 7.67201 18.4451L3.00781 13.9242C2.61772 13.5458 2.4821 12.9775 2.66035 12.4647C2.83343 11.9532 3.27518 11.5799 3.80864 11.4959L10.2282 10.5646C10.7165 10.5142 11.1453 10.2172 11.3649 9.778L14.1936 3.97841C14.2608 3.84925 14.3473 3.73041 14.452 3.62966L14.5682 3.53925C14.6289 3.47208 14.6987 3.41654 14.7762 3.37133L14.917 3.31966L15.1366 3.22925H15.6803C16.166 3.27962 16.5936 3.57025 16.817 4.00425L19.6832 9.778C19.8899 10.2004 20.2916 10.4936 20.7553 10.5646L27.1749 11.4959C27.7174 11.5734 28.1708 11.948 28.3503 12.4647C28.5195 12.9826 28.3736 13.551 27.9757 13.9242L23.1449 18.4967Z" fill="#00D29D"/>
</svg>
