<svg width="366" height="71" viewBox="0 0 366 71" fill="none" xmlns="http://www.w3.org/2000/svg">
<g clip-path="url(#clip0_4_964)">
<path fill-rule="evenodd" clip-rule="evenodd" d="M2.85265 29.9436L31.0515 2.22023C34.0155 -0.691859 38.8637 -0.691859 41.8265 2.22023L70.0255 29.9436C72.9883 32.8568 72.9883 37.623 70.0243 40.5362L41.8254 68.2595C38.8626 71.1738 34.0132 71.1738 31.0492 68.2595L2.85036 40.5373C-0.112456 37.6241 -0.110163 32.8568 2.85265 29.9436ZM5.66188 32.6775L33.8344 4.98087C35.2671 3.57215 37.6144 3.57215 39.0471 4.98087L67.2197 32.6775C68.6524 34.0862 68.6524 36.3936 67.2185 37.8034L39.046 65.4978C37.6133 66.9065 35.2671 66.9065 33.8332 65.4978L5.66188 37.8034C4.22804 36.3936 4.22804 34.0862 5.66188 32.6775Z" fill="#F8F9FA"/>
<path d="M107.57 21.587C107.57 21.2741 107.622 20.9912 107.721 20.7451C107.824 20.4901 107.981 20.2741 108.19 20.0981C108.391 19.9266 108.614 19.7986 108.86 19.7139C109.106 19.6293 109.369 19.587 109.652 19.587C109.92 19.587 110.174 19.6304 110.412 19.715C110.651 19.8008 110.869 19.93 111.068 20.0981C111.481 20.4478 111.688 20.93 111.688 21.5414V36.8936C111.688 38.3391 111.518 39.6832 111.181 40.926C110.844 42.171 110.336 43.3147 109.659 44.3537C108.985 45.3871 108.207 46.2936 107.328 47.0731C106.448 47.8515 105.463 48.5019 104.378 49.0241C103.295 49.5442 102.18 49.9351 101.031 50.1946C99.8803 50.454 98.6963 50.5854 97.4813 50.5854C96.2653 50.5854 95.0813 50.4551 93.9305 50.1946C92.7844 49.9362 91.6669 49.5453 90.5849 49.0241C89.4972 48.5007 88.5138 47.8515 87.6347 47.0742C86.7545 46.2958 85.9774 45.3893 85.3034 44.3548C84.6272 43.3169 84.1183 42.1754 83.7813 40.9282C83.4443 39.6854 83.2759 38.3413 83.2759 36.8958V21.4044C83.2759 21.1182 83.3274 20.8609 83.4306 20.6338C83.536 20.401 83.6965 20.2039 83.9074 20.0424C84.1068 19.891 84.3246 19.7752 84.5607 19.7017C84.7945 19.626 85.0444 19.587 85.3103 19.587C85.5911 19.587 85.8536 19.6271 86.0977 19.7072C86.3464 19.7874 86.5699 19.9099 86.7671 20.0692C86.9768 20.2384 87.135 20.44 87.2381 20.6727C87.3413 20.9021 87.3929 21.1627 87.3929 21.4489V36.8947C87.3929 37.9382 87.5109 38.9037 87.7493 39.7912C87.9854 40.6743 88.3396 41.4839 88.8106 42.2166C89.284 42.9505 89.8307 43.5964 90.4531 44.151C91.0743 44.7056 91.77 45.1699 92.5391 45.5441C93.3128 45.9194 94.1116 46.2034 94.9346 46.3916C95.7564 46.5798 96.6057 46.6733 97.4813 46.6733C99.2292 46.6733 100.878 46.2969 102.425 45.543C103.194 45.1688 103.891 44.7045 104.511 44.1499C105.133 43.5953 105.681 42.9483 106.152 42.2155C106.624 41.4817 106.978 40.6743 107.215 39.7901C107.451 38.9025 107.57 37.9382 107.57 36.8936V21.587Z" fill="#F8F9FA"/>
<path d="M131.583 19.9589C133.638 19.9589 135.534 20.3654 137.271 21.1817C139.009 21.9968 140.313 23.1628 141.182 24.6762V13.0835C141.182 12.4621 141.4 11.9677 141.834 11.5979C142.269 11.2282 142.782 11.0445 143.375 11.0445C143.967 11.0445 144.472 11.2293 144.885 11.5979C145.3 11.9677 145.508 12.461 145.508 13.0835V47.9194C145.508 48.5419 145.311 49.0364 144.916 49.405C144.521 49.7736 143.988 49.9585 143.316 49.9585C141.973 49.9585 141.301 49.278 141.301 47.9194V45.5307C140.353 47.2401 138.991 48.5019 137.214 49.317C135.436 50.1333 133.56 50.5409 131.583 50.5409C128.78 50.5409 126.231 49.9295 123.938 48.7068C121.648 47.4829 119.82 45.7056 118.458 43.3759C117.096 41.0451 116.413 38.2489 116.413 34.9871C116.413 32.7732 116.917 30.5104 117.924 28.1996C118.932 25.8889 120.571 23.9367 122.842 22.3454C125.114 20.7529 128.028 19.9589 131.583 19.9589ZM131.937 46.523C134.585 46.3671 136.788 45.494 138.544 43.9015C140.302 42.308 141.181 40.1932 141.181 37.5506V32.9492C141.181 30.4246 140.293 28.3277 138.514 26.6573C136.737 24.9869 134.485 24.0949 131.76 23.9768C129.033 23.9768 126.852 24.5693 125.212 25.7541C123.571 26.939 122.417 28.3656 121.746 30.036C121.073 31.7053 120.737 33.2977 120.737 34.8123C120.737 37.6074 121.33 39.8803 122.514 41.6275C123.7 43.3748 125.151 44.6276 126.87 45.3849C128.588 46.1421 130.278 46.523 131.937 46.523Z" fill="#F8F9FA"/>
<path d="M149.685 22.5871C149.603 22.4267 149.563 22.1873 149.563 21.871C149.563 21.2741 149.807 20.7775 150.292 20.3788C150.777 19.9812 151.343 19.7819 151.992 19.7819C152.396 19.7819 152.77 19.881 153.115 20.0803C153.459 20.2797 153.712 20.5781 153.874 20.9768L165.472 43.7223L177.19 20.9178C177.353 20.5592 177.605 20.2808 177.95 20.0815C178.294 19.8821 178.67 19.783 179.074 19.783C179.641 19.783 180.157 19.9523 180.623 20.2897C181.089 20.6282 181.322 21.077 181.322 21.6338C181.322 21.832 181.261 22.0904 181.138 22.4089L167.415 49.2135C167.214 49.6511 166.918 49.9886 166.535 50.228C166.15 50.4674 165.755 50.5866 165.351 50.5866C164.582 50.5866 163.933 50.15 163.408 49.2736L149.685 22.5871Z" fill="#F8F9FA"/>
<path d="M36.2525 41.7968C36.751 42.2868 36.9998 42.7968 36.9998 43.3292C36.9998 43.9015 36.7717 44.4016 36.3144 44.8303C35.857 45.2601 35.3367 45.4751 34.7544 45.4751C34.2146 45.4751 33.6736 45.2501 33.1338 44.8002L22.4069 34.5617C21.7421 34.0305 21.4097 33.4581 21.4097 32.8456C21.4097 32.1496 21.7628 31.497 22.4688 30.8835L33.2564 20.7073C33.755 20.1761 34.3372 19.9099 35.002 19.9099C35.5419 19.9099 36.021 20.1048 36.4359 20.4923C36.8519 20.8821 37.0605 21.3409 37.0605 21.871C37.0605 22.361 36.8107 22.8922 36.3121 23.4646L26.2717 32.7833L36.249 41.7957L36.2525 41.7968Z" fill="#F8F9FA"/>
<path d="M36.6273 46.8904C36.1287 47.3815 35.8788 47.8916 35.8788 48.4216C35.8788 48.9952 36.1069 49.4952 36.5642 49.9228C37.0216 50.3526 37.5408 50.5676 38.123 50.5676C38.6629 50.5676 39.2038 50.3426 39.7448 49.8916L50.4706 39.6553C51.1353 39.123 51.4689 38.5517 51.4689 37.9392C51.4689 37.2443 51.1159 36.5907 50.4075 35.9771L39.6199 25.7998C39.1213 25.2686 38.5391 25.0024 37.8743 25.0024C37.3345 25.0024 36.8554 25.1973 36.4416 25.5848C36.0244 25.9724 35.8169 26.4323 35.8169 26.9635C35.8169 27.4535 36.0668 27.9858 36.5654 28.5571L46.6057 37.8758L36.6273 46.8904Z" fill="#F8F9FA"/>
<path d="M232.695 47.5215C232.695 50.2209 232.06 52.5239 230.791 54.4326C229.521 56.3413 227.785 57.7768 225.583 58.7412C223.381 59.7044 220.911 60.1866 218.173 60.1866C215.792 60.1866 213.699 59.8971 211.893 59.3191C210.088 58.7412 208.411 57.7579 206.864 56.3692C206.586 56.0997 206.448 55.8291 206.448 55.5596C206.448 55.2901 206.546 55.0774 206.746 54.9237C206.944 54.77 207.182 54.6932 207.46 54.6932C207.777 54.6932 208.035 54.77 208.233 54.9237C209.94 56.1966 211.517 57.0641 212.966 57.5262C214.415 57.9895 216.15 58.22 218.174 58.22C220.435 58.22 222.509 57.8247 224.394 57.0351C226.28 56.2445 227.787 55.0395 228.918 53.4203C230.049 51.8011 230.614 49.8345 230.614 47.5215V42.1439C229.662 44.3422 228.144 46.0371 226.061 47.2331C223.977 48.428 221.666 49.026 219.126 49.026C216.428 49.026 213.908 48.4481 211.568 47.291C209.226 46.134 207.342 44.4279 205.912 42.1729C204.484 39.9178 203.77 37.2285 203.77 34.1059C203.77 30.7517 204.584 27.7928 206.21 25.2293C207.837 22.6647 210.178 20.7671 213.234 19.5321C215.02 18.7993 216.904 18.4329 218.888 18.4329C221.467 18.4329 223.928 19.1078 226.268 20.4575C228.371 21.8072 229.82 23.5221 230.613 25.6046V19.8795C230.613 19.1846 230.95 18.8383 231.625 18.8383C231.943 18.8383 232.201 18.9352 232.399 19.1278C232.597 19.3216 232.697 19.571 232.697 19.8795L232.695 47.5215ZM224.422 21.7871C222.438 20.8617 220.433 20.4185 218.41 20.4575C215.593 20.6512 213.153 21.5176 211.088 23.06C209.303 24.4097 207.983 26.0289 207.131 27.9176C206.278 29.8062 205.851 31.8308 205.851 33.9901C205.851 36.4189 206.366 38.6171 207.398 40.5826C208.429 42.5493 209.947 44.1106 211.951 45.2665C213.955 46.4235 216.346 47.0015 219.124 47.0015C221.306 47.0015 223.271 46.5193 225.017 45.5549C226.762 44.5916 228.131 43.2998 229.123 41.6807C230.115 40.0615 230.611 38.2875 230.611 36.3598V31.3285C230.611 29.2082 230.074 27.3184 229.004 25.6614C227.932 24.0032 226.405 22.7125 224.422 21.7871Z" fill="#F8F9FA"/>
<path d="M244.479 26.4131C245.114 24.2159 246.444 22.4331 248.468 21.0633C250.492 19.6947 252.754 19.0109 255.253 19.0109C255.967 19.0109 256.325 19.3383 256.325 19.9943C256.325 20.6502 255.967 20.9776 255.253 20.9776C251.682 20.9776 248.993 22.2404 247.188 24.765C245.383 27.2906 244.479 30.4611 244.479 34.2785V47.3479C244.479 47.6563 244.381 47.9069 244.183 48.0995C243.983 48.2922 243.746 48.3891 243.467 48.3891C243.15 48.3891 242.892 48.2922 242.694 48.0995C242.495 47.9069 242.396 47.6563 242.396 47.3479V19.9943C242.396 19.7248 242.495 19.4931 242.694 19.3005C242.892 19.1078 243.15 19.0109 243.467 19.0109C243.746 19.0109 243.983 19.1078 244.183 19.3005C244.381 19.4931 244.479 19.7248 244.479 19.9943V26.4131Z" fill="#F8F9FA"/>
<path d="M274.657 49.0249C272.276 49.0249 270.074 48.5817 268.05 47.6952C266.026 46.8077 264.28 45.536 262.812 43.8778C260.432 41.0247 259.241 37.6516 259.241 33.7573C259.241 31.559 259.678 29.4398 260.551 27.3964C261.424 25.3529 262.684 23.5889 264.331 22.1045C265.978 20.62 267.913 19.5699 270.134 18.953C271.483 18.6055 272.991 18.4318 274.658 18.4318C276.126 18.4318 277.614 18.6055 279.122 18.953C282.257 19.8015 284.797 21.4976 286.741 24.0422C288.684 26.5868 289.796 29.4588 290.074 32.6593C290.312 37.0547 289.121 40.7942 286.502 43.8778C285.034 45.536 283.287 46.8077 281.264 47.6952C279.241 48.5817 277.037 49.0249 274.657 49.0249ZM278.466 20.9196C277.196 20.6111 275.907 20.4563 274.598 20.4563C273.368 20.4563 272.119 20.6111 270.848 20.9196C267.952 21.6902 265.65 23.3094 263.943 25.7772C262.237 28.2449 261.384 30.9822 261.384 33.9889C261.384 35.5691 261.642 37.1026 262.158 38.587C262.674 40.0704 263.447 41.4111 264.479 42.606C265.708 44.0326 267.217 45.1306 269.003 45.9023C270.788 46.6729 272.673 47.0594 274.657 47.0594C276.681 47.0594 278.595 46.6741 280.4 45.9023C282.205 45.1317 283.723 44.0326 284.954 42.606C285.985 41.4111 286.759 40.0804 287.275 38.616C287.79 37.1505 288.048 35.6282 288.048 34.0468C288.048 31.0401 287.185 28.2928 285.459 25.8061C283.733 23.3194 281.403 21.6913 278.466 20.9196Z" fill="#F8F9FA"/>
<path d="M299.834 36.3598C299.834 38.3643 300.36 40.1862 301.411 41.8243C302.464 43.4635 303.853 44.7453 305.579 45.6707C307.305 46.595 309.159 47.0583 311.143 47.0583C313.206 47.0583 315.27 46.5081 317.334 45.4101C319.397 44.311 321.103 42.7408 322.452 40.6973C323.802 38.6538 324.477 36.283 324.477 33.5847V20.0521C324.477 19.3583 324.814 19.0109 325.488 19.0109C325.805 19.0109 326.063 19.1078 326.261 19.3004C326.46 19.4931 326.559 19.7436 326.559 20.0521V47.4636C326.559 47.7331 326.46 47.9647 326.261 48.1574C326.062 48.35 325.805 48.4469 325.488 48.4469C324.814 48.4469 324.477 48.0995 324.477 47.4057V39.3098C323.882 41.4301 322.87 43.223 321.44 44.6874C320.012 46.1529 318.404 47.242 316.62 47.9547C314.834 48.6674 313.088 49.0249 311.382 49.0249C309.041 49.0249 306.828 48.5327 304.746 47.5494C302.662 46.566 300.976 45.1117 299.686 43.1829C298.397 41.2552 297.753 38.9801 297.753 36.3587V20.0499C297.753 19.3561 298.09 19.0087 298.765 19.0087C299.082 19.0087 299.34 19.1055 299.539 19.2982C299.737 19.4908 299.837 19.7414 299.837 20.0499V36.3587L299.834 36.3598Z" fill="#F8F9FA"/>
<path d="M356.201 47.9837C354.535 48.6775 352.431 49.0249 349.893 49.0249C347.353 49.0249 345.042 48.4269 342.958 47.232C340.875 46.0371 339.357 44.3411 338.405 42.1428V58.8559C338.405 59.5497 338.068 59.8971 337.393 59.8971C337.075 59.8971 336.817 59.8013 336.619 59.6076C336.421 59.4149 336.321 59.1643 336.321 58.8559V20.0521C336.321 19.7437 336.421 19.4931 336.619 19.3004C336.817 19.1078 337.075 19.0109 337.393 19.0109C338.068 19.0109 338.405 19.3583 338.405 20.0521V25.6046C339.198 23.5221 340.647 21.8072 342.75 20.4575C345.09 19.1089 347.551 18.4329 350.13 18.4329C352.789 18.4329 355.278 19.0788 357.599 20.3706C359.92 21.6624 361.776 23.5032 363.164 25.8941C364.553 28.2839 365.248 31.0412 365.248 34.1638C365.248 37.2485 364.455 40.0537 362.867 42.5782C361.28 45.1039 359.057 46.9035 356.201 47.9837ZM338.405 36.3598C338.405 38.3265 338.901 40.0993 339.894 41.6807C340.885 43.2609 342.255 44.5237 344 45.4681C345.746 46.4124 347.71 46.9235 349.893 47.0004C352.67 47.0382 355.061 46.4792 357.064 45.3233C359.069 44.1662 360.586 42.605 361.618 40.6394C362.649 38.6728 363.165 36.4756 363.165 34.0469C363.165 31.0401 362.471 28.5144 361.081 26.471C359.692 24.4275 357.997 22.9152 355.993 21.9319C353.989 20.9486 352.074 20.4564 350.249 20.4564C348.185 20.4564 346.251 20.8807 344.446 21.7292C342.641 22.5778 341.183 23.8206 340.071 25.4587C338.961 27.0979 338.405 29.0534 338.405 31.3285V36.3598Z" fill="#F8F9FA"/>
<path d="M191.765 10.7668C191.77 10.2813 192.176 9.89155 192.672 9.896C193.168 9.90046 193.567 10.2969 193.564 10.7824L191.765 10.7668ZM191.34 59.6989L191.765 10.7668L193.564 10.7824L193.138 59.7145L191.34 59.6989ZM193.138 59.7145C193.134 60.2 192.728 60.5898 192.232 60.5853C191.736 60.5808 191.337 60.1844 191.34 59.6989L193.138 59.7145Z" fill="#F8F9FA"/>
</g>
<defs>
<clipPath id="clip0_4_964">
<rect width="366" height="71" fill="white"/>
</clipPath>
</defs>
</svg>
